<svg id="Layer_1" data-name="Layer 1" xmlns="http://www.w3.org/2000/svg" viewBox="0 0 296 166"><defs><style>.cls-1{fill:#fff;}.cls-2{fill:#f4a8a8;}.cls-3{fill:#999;}.cls-4{fill:#898989;}.cls-5{opacity:0.5;}</style></defs><title>STEAMOVENLOGO</title><path class="cls-1" d="M246.83,82,245,81.57c-.19.18-.4.35-.58.54a29.49,29.49,0,0,0-4,4.94,30.67,30.67,0,0,1,2.07-6.26c.29-.66.61-1.3.94-1.95l-.1-.57A71.33,71.33,0,0,0,111.49,54.61q1,1.1,1.91,2.26A31.1,31.1,0,0,1,117,62.8a25,25,0,0,1,2.22,13.09,24,24,0,0,0-1.62-6.21,22.46,22.46,0,0,0-3.12-5.39,27.44,27.44,0,0,0-4.24-4.4c-.79-.64-1.59-1.25-2.42-1.8l-.47-.29-1.18-.22a52.61,52.61,0,0,0-62.36,51.73v13.82l-3.11,1.12c-9.57,3.44-16.4,12.46-18,23.22h230a25.74,25.74,0,0,0,23.57-15.84A40.58,40.58,0,0,0,246.83,82Z"/><path class="cls-2" d="M252,73.72A80.72,80.72,0,0,0,104.61,47.84,62,62,0,0,0,34.4,109.32v7.39c-12.92,6.12-21.4,20-21.4,35.46v4.69H252.73a34.75,34.75,0,0,0,32.39-22l.18-.53A50,50,0,0,0,252,73.72Zm24.29,57.91a25.74,25.74,0,0,1-23.57,15.84h-230c1.55-10.76,8.38-19.78,18-23.22l3.11-1.12V109.32a52.61,52.61,0,0,1,62.36-51.73l1.18.22.47.29c.83.55,1.64,1.16,2.42,1.8a27.44,27.44,0,0,1,4.24,4.4,22.46,22.46,0,0,1,3.12,5.39,24,24,0,0,1,1.62,6.21A25,25,0,0,0,117,62.8a31.1,31.1,0,0,0-3.57-5.93q-.91-1.16-1.91-2.26A71.33,71.33,0,0,1,243.33,78.26l.1.57c-.33.64-.65,1.29-.94,1.95A30.67,30.67,0,0,0,240.42,87a29.49,29.49,0,0,1,4-4.94c.19-.19.39-.35.58-.54l1.81.45a40.58,40.58,0,0,1,29.47,49.62Z"/><ellipse class="cls-3" cx="194.88" cy="75.31" rx="7.04" ry="11.73"/><ellipse class="cls-3" cx="223.51" cy="76.27" rx="5.28" ry="8.79"/><path class="cls-3" d="M216,54.19a8,8,0,0,1,3.08-3.41,9.4,9.4,0,0,1,4.53-1.45,7.88,7.88,0,0,1,4.73,1.22,6.92,6.92,0,0,1,2.91,3.64,39.14,39.14,0,0,0-4-1.09,13.13,13.13,0,0,0-3.48-.25,25,25,0,0,0-3.63.48Z"/><path class="cls-3" d="M182.86,55a13.77,13.77,0,0,1,4.89-4.48,15,15,0,0,1,6.56-1.93c.59,0,1.18,0,1.77,0s1.17.17,1.75.27a16.69,16.69,0,0,1,1.68.54,6.8,6.8,0,0,1,.82.32l.76.43A11.57,11.57,0,0,1,205.73,55,35.63,35.63,0,0,0,200,52.7a16.25,16.25,0,0,0-5.53-.62,26.61,26.61,0,0,0-5.66,1C186.89,53.56,184.94,54.22,182.86,55Z"/><path class="cls-4" d="M198.4,88.22c-1.44-.35-2.65-.7-3.81-1a27,27,0,0,0-3.28-.67,13.36,13.36,0,0,0-3.19-.08c-1.15,0-2.3.36-3.8.57a6.28,6.28,0,0,1,3-3.21,7.31,7.31,0,0,1,4.49-.78,8.63,8.63,0,0,1,4.09,1.71A7.27,7.27,0,0,1,198.4,88.22Z"/><path class="cls-4" d="M222.55,85.54a3.48,3.48,0,0,1,1.2-2,4.22,4.22,0,0,1,2.15-1,3.69,3.69,0,0,1,2.4.47,3,3,0,0,1,1.44,1.84c-.84,0-1.44-.12-2-.09a10,10,0,0,0-1.53.11C225.2,85.08,224.14,85.35,222.55,85.54Z"/><path class="cls-2" d="M217.93,97.58c-12.83,12.27-24.41.39-24.41.39s1.1,18.75,14.32,21C207.83,119,204.63,111.1,217.93,97.58Z"/><path class="cls-3" d="M217.93,97.58a17.7,17.7,0,0,1-5,5,15.21,15.21,0,0,1-7.08,2.42,16.81,16.81,0,0,1-7.55-1.22,21,21,0,0,1-3.37-1.75c-.53-.35-1-.71-1.55-1.1a14.43,14.43,0,0,1-1.52-1.33l4-1.77a42.26,42.26,0,0,0,1,6.26,32.41,32.41,0,0,0,2,6,18.36,18.36,0,0,0,3.45,5.24,15.19,15.19,0,0,0,2.48,2.06,19.05,19.05,0,0,0,3,1.56,12.39,12.39,0,0,1-6.88-1.87,17.63,17.63,0,0,1-5.22-5.22,26.71,26.71,0,0,1-3.11-6.61,32,32,0,0,1-.92-3.51,28.92,28.92,0,0,1-.53-3.67l-.5-5.94,4.51,4.17a18.84,18.84,0,0,0,2.28,1.81,19.74,19.74,0,0,0,2.61,1.51,15.92,15.92,0,0,0,5.71,1.6,14.15,14.15,0,0,0,3-.09,13.84,13.84,0,0,0,3.06-.7A29.7,29.7,0,0,0,217.93,97.58Z"/><g class="cls-5"><path class="cls-3" d="M164.28,90.92a10.87,10.87,0,0,1,8.82-3.28A13.93,13.93,0,0,1,182,92.13a13.11,13.11,0,0,1,2.78,4.36,10.38,10.38,0,0,1,.63,5.21,11.34,11.34,0,0,1-5,8,18,18,0,0,0,1.34-8.08,10.67,10.67,0,0,0-3.13-6.23,15,15,0,0,0-6.13-4.1A16.23,16.23,0,0,0,164.28,90.92Z"/></g></svg>